<svg xmlns="http://www.w3.org/2000/svg" viewBox="0 0 64 64">
  <defs>
    <linearGradient id="t" x1="0" y1="0" x2="1" y2="1"><stop offset="0" stop-color="#1f3c72"></stop><stop offset="1" stop-color="#0a0d13"></stop></linearGradient>
    <linearGradient id="p" x1="0" y1="0" x2="1" y2="1"><stop offset="0" stop-color="#37c684"></stop><stop offset="1" stop-color="#1f9d62"></stop></linearGradient>
  </defs>
  <rect width="64" height="64" rx="14" fill="#0a0d13"></rect>
  <rect width="64" height="64" rx="14" fill="url(#t)"></rect>
  <path d="M32 27 C27 23.8 20 23.8 16 25.7 L16 45 C20 43.1 27 43.1 32 46.3 Z" fill="#3b82f6"></path>
  <path d="M32 27 C37 23.8 44 23.8 48 25.7 L48 45 C44 43.1 37 43.1 32 46.3 Z" fill="#2b62b8"></path>
  <path d="M20 31.5 L28.5 30.2" stroke="#2a63b8" stroke-width="1.5" stroke-linecap="round"></path>
  <path d="M20 35 L27 33.9" stroke="#2a63b8" stroke-width="1.5" stroke-linecap="round"></path>
  <path d="M20 38.5 L28.5 37.3" stroke="#2a63b8" stroke-width="1.5" stroke-linecap="round"></path>
  <polyline points="35,39 38.5,36.5 41.5,38 46,32.5" fill="none" stroke="#37c684" stroke-width="2.1" stroke-linecap="round" stroke-linejoin="round"></polyline>
  <circle cx="46" cy="32.5" r="1.7" fill="#bdf0d4"></circle>
  <g transform="rotate(40 35 39)">
    <rect x="31.7" y="13" width="6.4" height="19" rx="3.2" fill="url(#p)"></rect>
    <rect x="31.7" y="15.3" width="6.4" height="2.8" fill="#1f9d62"></rect>
    <path d="M31.8 31.5 L38 31.5 L34.9 39 Z" fill="#bdf0d4"></path>
    <path d="M34 34.6 L35.8 34.6 L34.9 39 Z" fill="#0c3a25"></path>
  </g>
</svg>